<svg width="112" height="80" viewBox="0 0 112 80" fill="none" xmlns="http://www.w3.org/2000/svg">
<path d="M3.09537 6.25247C3.14274 6.2147 3.20298 6.19708 3.26314 6.20339H11.8247C11.8486 6.20006 11.8731 6.20234 11.896 6.21008C11.919 6.21781 11.9398 6.23078 11.9569 6.24796C11.9741 6.26514 11.987 6.28607 11.9947 6.30911C12.0024 6.33214 12.0046 6.35665 12.0013 6.38072L11.9813 7.19043C11.9896 7.21786 11.9903 7.24702 11.9833 7.27481C11.9764 7.3026 11.962 7.32797 11.9418 7.34823C11.9217 7.36848 11.8964 7.38288 11.8687 7.38985C11.841 7.39683 11.812 7.39613 11.7847 7.38784H4.75747C4.69237 7.38128 4.62684 7.39491 4.5697 7.42688C4.54987 7.4515 4.53532 7.47994 4.52691 7.51044C4.5185 7.54095 4.51641 7.57287 4.5208 7.60421V12.6822C4.51702 12.7106 4.51945 12.7395 4.52789 12.7668C4.53633 12.7942 4.55059 12.8193 4.5697 12.8406C4.61997 12.8714 4.67881 12.8851 4.73746 12.8796H10.0704C10.0947 12.8741 10.12 12.8749 10.144 12.8819C10.1679 12.8888 10.1897 12.9017 10.2074 12.9194C10.225 12.9371 10.2379 12.959 10.2448 12.9831C10.2518 13.0071 10.2525 13.0325 10.247 13.057V13.8868C10.2502 13.9098 10.2483 13.9332 10.2414 13.9554C10.2345 13.9776 10.2227 13.9979 10.207 14.015C10.165 14.0383 10.117 14.0484 10.0693 14.044H4.71969C4.66734 14.0403 4.61529 14.0545 4.57193 14.0842C4.55292 14.1052 4.5387 14.1303 4.53026 14.1574C4.52182 14.1846 4.51935 14.2132 4.52304 14.2414V19.4834C4.51479 19.5108 4.51409 19.54 4.52104 19.5677C4.52799 19.5955 4.54233 19.6209 4.56251 19.6412C4.58269 19.6614 4.60796 19.6758 4.63564 19.6828C4.66332 19.6898 4.69237 19.6891 4.71969 19.6808H12.0613C12.1188 19.6763 12.1764 19.6863 12.2291 19.7098C12.2613 19.7299 12.278 19.7789 12.278 19.8581V20.6879C12.278 20.8061 12.2124 20.8652 12.0813 20.8652H3.28314C3.25035 20.8744 3.2157 20.8746 3.18278 20.8659C3.14986 20.8572 3.11985 20.8399 3.09578 20.8158C3.07171 20.7916 3.05446 20.7615 3.0458 20.7284C3.03715 20.6954 3.03737 20.6606 3.04648 20.6277V6.44095C3.04003 6.37604 3.05742 6.31099 3.09537 6.25804V6.25247Z" fill="black"/>
<path d="M14.2156 20.795C14.1986 20.7634 14.1888 20.7283 14.1871 20.6924C14.1853 20.6565 14.1917 20.6206 14.2056 20.5875L19.343 6.45989C19.3714 6.38339 19.4188 6.31544 19.4807 6.26248C19.5462 6.21846 19.6244 6.19766 19.703 6.20337H20.884C20.9719 6.19049 21.0616 6.20916 21.1372 6.25608C21.2128 6.303 21.2695 6.37516 21.2973 6.45989L26.3758 20.5875C26.3899 20.6186 26.3967 20.6526 26.3957 20.6868C26.3991 20.7109 26.3968 20.7354 26.3891 20.7584C26.3814 20.7814 26.3685 20.8024 26.3514 20.8195C26.3342 20.8367 26.3134 20.8497 26.2904 20.8574C26.2675 20.8651 26.2431 20.8674 26.2191 20.8641H25.1959C25.1338 20.8731 25.0706 20.8603 25.0168 20.828C24.963 20.7958 24.9219 20.7459 24.9003 20.6868L23.4438 16.617C23.4295 16.5696 23.3999 16.5283 23.3597 16.4996C23.3195 16.4709 23.2709 16.4565 23.2216 16.4586H17.242C17.1928 16.4565 17.1442 16.4709 17.1039 16.4996C17.0637 16.5283 17.0341 16.5696 17.0198 16.617L15.5244 20.7069C15.4977 20.8184 15.4133 20.8652 15.2689 20.8652H14.3634C14.3339 20.868 14.3043 20.863 14.2774 20.8507C14.2505 20.8383 14.2273 20.8191 14.2101 20.795H14.2156ZM22.7872 15.253C22.9183 15.253 22.9638 15.1805 22.9249 15.0299L20.3862 8.02021C20.3473 7.90199 20.3007 7.84288 20.2485 7.84288C20.1962 7.84288 20.144 7.90869 20.0918 8.04029L17.5131 15.0545C17.4918 15.0907 17.4782 15.1309 17.4732 15.1727C17.4732 15.2262 17.5254 15.2519 17.6309 15.2519L22.7872 15.253Z" fill="black"/>
<path d="M33.6863 7.19149C32.8125 7.14194 31.9479 7.39293 31.2354 7.90306C30.9392 8.14051 30.7035 8.44529 30.5478 8.79223C30.3921 9.13916 30.3208 9.51831 30.3399 9.89835C30.3399 11.0047 31.0806 11.8226 32.5619 12.352L35.3572 13.3201C36.3055 13.5932 37.1624 14.1189 37.837 14.8414C38.4229 15.6134 38.6895 16.5826 38.5813 17.5471C38.473 18.5115 37.9983 19.3968 37.256 20.0187C36.1703 20.773 34.8646 21.1416 33.5463 21.0659C32.5551 21.1331 31.5634 20.9426 30.667 20.5128C29.7706 20.083 28.9998 19.4284 28.4289 18.6123C28.3925 18.551 28.3659 18.4844 28.35 18.4148C28.35 18.336 28.4156 18.2505 28.5467 18.1583L29.0589 17.8025C29.123 17.7423 29.2066 17.7071 29.2944 17.7033C29.3386 17.7012 29.3826 17.711 29.4216 17.7318C29.4607 17.7526 29.4935 17.7836 29.5166 17.8215C29.9795 18.455 30.5611 18.9919 31.2287 19.4019C31.9379 19.7502 32.7232 19.9133 33.5118 19.8759C34.4473 19.9281 35.3776 19.7049 36.1883 19.2335C36.5103 19.0131 36.7689 18.7116 36.9381 18.3593C37.1074 18.0069 37.1814 17.6161 37.1527 17.2259C37.169 16.7051 36.9898 16.1971 36.6505 15.8028C36.1155 15.3002 35.4722 14.9285 34.7706 14.7165L31.7986 13.6302C30.9267 13.3712 30.1564 12.8466 29.5944 12.129C29.1446 11.5149 28.9031 10.7721 28.9055 10.0099C28.888 9.2544 29.097 8.51104 29.5055 7.87629C29.9224 7.25644 30.5105 6.7723 31.1976 6.48327C31.9913 6.14752 32.8463 5.98262 33.7074 5.99922C34.548 5.97305 35.3839 6.13296 36.156 6.46758C36.9281 6.8022 37.6173 7.30334 38.1748 7.93541C38.2158 7.98675 38.243 8.04782 38.2537 8.11274C38.2516 8.14306 38.2436 8.17267 38.23 8.19986C38.2165 8.22704 38.1977 8.25126 38.1748 8.27111L37.466 8.84437C37.4513 8.86164 37.4333 8.87578 37.4131 8.88593C37.3928 8.89608 37.3708 8.90206 37.3482 8.90349C37.296 8.90349 37.2304 8.85108 37.1515 8.74512C36.7315 8.23654 36.2004 7.83186 35.5995 7.56244C34.9985 7.29302 34.3439 7.16609 33.6863 7.19149Z" fill="black"/>
<path d="M44.7932 6.22339C47.4596 6.25016 49.4017 6.8528 50.6194 8.03131C51.2763 8.75876 51.7777 9.61368 52.0926 10.5433C52.4075 11.4729 52.5293 12.4574 52.4503 13.4361C52.5331 14.4545 52.4024 15.4791 52.0668 16.4438C51.7312 17.4085 51.198 18.2919 50.5016 19.0372C49.2024 20.2558 47.2211 20.8652 44.5576 20.8652H42.0378C41.8801 20.8652 41.8012 20.7797 41.8012 20.6086V6.42191C41.8012 6.2732 41.8801 6.19885 42.0378 6.19885L44.7932 6.22339ZM43.2777 7.66549V19.5011C43.2777 19.6328 43.3566 19.6986 43.5144 19.6986H44.361C45.6481 19.748 46.9322 19.5399 48.1384 19.0862C49.0502 18.7092 49.7926 18.0096 50.2249 17.12C50.7177 15.9776 50.9456 14.7378 50.8916 13.4941C50.9503 12.2541 50.7249 11.0171 50.2327 9.87825C49.8166 9.03092 49.1049 8.36652 48.2329 8.01123C47.086 7.58883 45.8725 7.378 44.6509 7.38889H43.4288C43.3281 7.38889 43.2777 7.48109 43.2777 7.66549Z" fill="black"/>
<path d="M112 79.3832H1V80H112V79.3832Z" fill="black"/>
<path d="M51.4226 33.6689C50.5488 33.6194 49.6843 33.8704 48.9717 34.3805C48.6755 34.6179 48.4398 34.9227 48.2841 35.2697C48.1284 35.6166 48.0572 35.9957 48.0762 36.3758C48.0762 37.4822 48.8169 38.3001 50.2983 38.8295L53.0936 39.7975C54.0418 40.0707 54.8987 40.5964 55.5734 41.3188C56.1594 42.0907 56.4262 43.0598 56.3181 44.0243C56.2101 44.9887 55.7356 45.8741 54.9934 46.4961C53.9073 47.2506 52.6013 47.6192 51.2826 47.5434C50.2915 47.6105 49.2998 47.42 48.4034 46.9902C47.507 46.5604 46.7361 45.9058 46.1653 45.0897C46.1289 45.0284 46.1023 44.9618 46.0864 44.8923C46.0864 44.8134 46.1519 44.728 46.283 44.6358L46.7941 44.28C46.8586 44.2195 46.9426 44.1843 47.0307 44.1807C47.0749 44.1786 47.1189 44.1884 47.158 44.2092C47.1971 44.23 47.2299 44.261 47.253 44.2989C47.7157 44.9326 48.2973 45.4694 48.965 45.8793C49.6742 46.2276 50.4595 46.3907 51.2482 46.3533C52.1836 46.4056 53.1139 46.1823 53.9246 45.7109C54.2466 45.4906 54.5052 45.1891 54.6745 44.8367C54.8437 44.4843 54.9177 44.0935 54.889 43.7034C54.9052 43.1826 54.726 42.6747 54.3868 42.2802C53.8519 41.7776 53.2085 41.4059 52.507 41.1939L49.535 40.1076C48.6631 39.8485 47.8928 39.3239 47.3307 38.6064C46.881 37.9923 46.6396 37.2495 46.6419 36.4873C46.6242 35.7318 46.8333 34.9885 47.2418 34.3537C47.6591 33.7367 48.2463 33.255 48.9317 32.9674C49.7254 32.6316 50.5804 32.4667 51.4415 32.4834C52.2821 32.4572 53.1181 32.6171 53.8901 32.9517C54.6622 33.2863 55.3514 33.7874 55.9089 34.4195C55.95 34.4708 55.9772 34.5319 55.9878 34.5969C55.9858 34.6272 55.9777 34.6568 55.9642 34.684C55.9506 34.7112 55.9318 34.7354 55.9089 34.7552L55.2001 35.3285C55.1854 35.3458 55.1674 35.3599 55.1472 35.3701C55.127 35.3802 55.1049 35.3862 55.0823 35.3876C55.0301 35.3876 54.9646 35.3352 54.8857 35.2293C54.4666 34.7195 53.9362 34.3136 53.3357 34.0428C52.7351 33.772 52.0805 33.6437 51.4226 33.6678V33.6689Z" fill="black"/>
<path d="M59.5809 32.731C59.6282 32.6932 59.6885 32.6756 59.7486 32.6819H68.3102C68.3341 32.6786 68.3586 32.6808 68.3815 32.6886C68.4044 32.6963 68.4253 32.7093 68.4424 32.7265C68.4595 32.7436 68.4725 32.7646 68.4802 32.7876C68.4879 32.8107 68.4901 32.8352 68.4868 32.8592L68.4668 33.6689C68.4751 33.6964 68.4758 33.7255 68.4688 33.7533C68.4619 33.7811 68.4476 33.8065 68.4274 33.8267C68.4072 33.847 68.3819 33.8614 68.3542 33.8684C68.3265 33.8753 68.2975 33.8746 68.2702 33.8663H61.243C61.1779 33.8597 61.1123 33.8733 61.0552 33.9054C61.0354 33.93 61.0208 33.9585 61.0124 33.989C61.004 34.0195 61.0019 34.0514 61.0063 34.0827V39.1607C61.0025 39.1891 61.0049 39.218 61.0134 39.2453C61.0218 39.2727 61.0361 39.2978 61.0552 39.3191C61.1054 39.35 61.1643 39.3637 61.223 39.3581H66.5559C66.6052 39.3533 66.6546 39.3677 66.6936 39.3983C66.7244 39.4374 66.7387 39.487 66.7336 39.5366V40.3664C66.7368 40.3894 66.7349 40.4128 66.728 40.435C66.721 40.4572 66.7093 40.4776 66.6936 40.4947C66.6516 40.5179 66.6037 40.528 66.5559 40.5237H61.2019C61.1495 40.5199 61.0974 40.534 61.0541 40.5638C61.0351 40.5849 61.0208 40.6099 61.0124 40.637C61.004 40.6642 61.0015 40.6929 61.0052 40.7211V45.963C60.997 45.9904 60.9963 46.0196 61.0032 46.0474C61.0102 46.0752 61.0245 46.1005 61.0447 46.1208C61.0649 46.1411 61.0901 46.1554 61.1178 46.1624C61.1455 46.1694 61.1745 46.1687 61.2019 46.1604H68.5479C68.6054 46.156 68.663 46.1659 68.7157 46.1894C68.7479 46.2095 68.7646 46.2586 68.7646 46.3377V47.1676C68.7646 47.2858 68.699 47.3449 68.5679 47.3449H59.7708C59.738 47.354 59.7034 47.3543 59.6705 47.3456C59.6376 47.3369 59.6076 47.3196 59.5835 47.2954C59.5594 47.2712 59.5422 47.2411 59.5335 47.2081C59.5248 47.175 59.5251 47.1402 59.5342 47.1073V32.9206C59.5268 32.8556 59.5434 32.7901 59.5809 32.7365V32.731Z" fill="black"/>
<path d="M81.8713 47.104C81.8731 47.1655 81.8521 47.2255 81.8124 47.2724C81.7932 47.295 81.7691 47.313 81.742 47.325C81.7148 47.337 81.6854 47.3426 81.6558 47.3415H80.5725C80.5092 47.3377 80.4487 47.3141 80.3993 47.2741C80.3499 47.2342 80.3142 47.1798 80.297 47.1185L77.6394 40.7367C77.6291 40.7006 77.6116 40.6671 77.5879 40.6382C77.5642 40.6092 77.5349 40.5854 77.5017 40.5683C77.4079 40.5303 77.307 40.5135 77.2061 40.5192H73.4864C73.3286 40.5192 73.2498 40.5935 73.2498 40.7423V47.0649C73.2597 47.1442 73.2386 47.2241 73.1909 47.288C73.1354 47.3325 73.0649 47.3537 72.9942 47.3471H72.0299C71.8599 47.3471 71.7743 47.2679 71.7743 47.1096V32.9228C71.7665 32.8564 71.784 32.7895 71.8232 32.7355C71.8706 32.6977 71.9308 32.6801 71.991 32.6864H77.305C78.5434 32.6077 79.7726 32.9448 80.7992 33.6444C81.2092 33.9737 81.5348 34.3967 81.7488 34.8781C81.9628 35.3594 82.0588 35.8852 82.0291 36.4115C82.0796 37.3324 81.7766 38.2376 81.1825 38.941C80.6269 39.5549 79.9109 40 79.116 40.2259C79.0375 40.2393 79.0112 40.2984 79.0371 40.4032L81.8513 47.0025C81.8658 47.0343 81.8726 47.069 81.8713 47.104ZM79.5593 38.7068C79.8796 38.4574 80.1329 38.1316 80.296 37.759C80.4592 37.3864 80.5271 36.9788 80.4936 36.5732C80.4936 34.7426 79.4111 33.827 77.2461 33.8262H73.5064C73.3353 33.8262 73.2498 33.8853 73.2498 34.0036V39.1607C73.2498 39.3057 73.3098 39.3838 73.4264 39.3838H76.6939C77.6953 39.4552 78.6947 39.219 79.5593 38.7068Z" fill="black"/>
<path d="M95.4325 47.104C95.4342 47.1655 95.4132 47.2254 95.3736 47.2724C95.3542 47.2951 95.3299 47.3131 95.3026 47.3251C95.2752 47.337 95.2456 47.3427 95.2158 47.3415H94.1337C94.0704 47.3376 94.0098 47.3141 93.9604 47.2741C93.9111 47.2341 93.8753 47.1798 93.8581 47.1185L91.2005 40.7366C91.1903 40.7006 91.1727 40.6671 91.149 40.6381C91.1254 40.6092 91.096 40.5854 91.0628 40.5682C90.9691 40.5303 90.8682 40.5135 90.7673 40.5192H87.0476C86.8898 40.5192 86.8109 40.5935 86.8109 40.7422V47.0649C86.8208 47.1441 86.7997 47.2241 86.752 47.288C86.6966 47.3326 86.6261 47.3538 86.5554 47.3471H85.591C85.421 47.3471 85.3355 47.2679 85.3355 47.1095V32.9228C85.3279 32.8564 85.3453 32.7896 85.3844 32.7354C85.4318 32.6978 85.492 32.6802 85.5521 32.6864H90.865C92.103 32.6078 93.3319 32.9448 94.3581 33.6444C94.7686 33.9734 95.0947 34.3963 95.309 34.8777C95.5234 35.3591 95.6198 35.885 95.5902 36.4115C95.641 37.3324 95.3379 38.2377 94.7436 38.941C94.1881 39.555 93.4722 40.0002 92.6771 40.2259C92.5986 40.2392 92.5723 40.2984 92.5982 40.4032L95.4125 47.0025C95.4269 47.0343 95.4338 47.069 95.4325 47.104ZM93.1193 38.7068C93.4399 38.4575 93.6933 38.1317 93.8567 37.7591C94.02 37.3865 94.0881 36.9789 94.0548 36.5732C94.0548 34.7426 92.9723 33.827 90.8072 33.8262H87.0675C86.8972 33.8262 86.812 33.8853 86.812 34.0035V39.1607C86.812 39.3094 86.8709 39.3838 86.9887 39.3838H90.2562C91.2573 39.455 92.2562 39.2189 93.1204 38.7068H93.1193Z" fill="black"/>
<path d="M97.8234 47.2724C97.8064 47.2408 97.7967 47.2057 97.795 47.1698C97.7932 47.1339 97.7995 47.0981 97.8133 47.0649L102.951 32.9373C102.979 32.8608 103.027 32.7928 103.089 32.7399C103.154 32.6958 103.232 32.675 103.311 32.6808H104.492C104.58 32.6679 104.669 32.6866 104.745 32.7335C104.82 32.7804 104.877 32.8526 104.905 32.9373L109.984 47.0649C109.998 47.096 110.005 47.13 110.004 47.1642C110.007 47.1883 110.005 47.2128 109.997 47.2358C109.989 47.2588 109.976 47.2798 109.959 47.297C109.942 47.3141 109.921 47.3271 109.898 47.3348C109.875 47.3426 109.851 47.3449 109.827 47.3415H108.802C108.74 47.3505 108.677 47.3377 108.623 47.3054C108.57 47.2732 108.528 47.2233 108.507 47.1642L107.05 43.0944C107.036 43.047 107.007 43.0057 106.966 42.977C106.926 42.9484 106.877 42.934 106.828 42.9361H100.846C100.797 42.934 100.749 42.9484 100.708 42.977C100.668 43.0057 100.639 43.047 100.624 43.0944L99.1288 47.1843C99.1021 47.2958 99.0177 47.3426 98.8733 47.3426H97.9678C97.9398 47.3439 97.9119 47.3381 97.8867 47.3258C97.8615 47.3136 97.8398 47.2952 97.8234 47.2724ZM106.395 41.7304C106.526 41.7304 106.572 41.6579 106.533 41.5074L103.994 34.4932C103.954 34.3749 103.908 34.3158 103.856 34.3158C103.804 34.3158 103.752 34.3816 103.7 34.5133L101.121 41.5274C101.1 41.5637 101.087 41.6039 101.082 41.6456C101.082 41.6992 101.134 41.7248 101.239 41.7248L106.395 41.7304Z" fill="black"/>
<path d="M4.40528 60.9148C4.41167 61.0075 4.39121 61.1001 4.34639 61.1814C4.3175 61.2149 4.28072 61.2406 4.23938 61.2562C4.19804 61.2718 4.15345 61.2768 4.10972 61.2706H3.20424C3.16591 61.2767 3.12667 61.2726 3.09042 61.2587C3.05416 61.2448 3.02218 61.2216 2.99762 61.1914C2.96026 61.1181 2.94336 61.036 2.94873 60.9538V59.4136C2.94873 59.2158 3.03388 59.1169 3.20424 59.1169H4.14861C4.31897 59.1169 4.40416 59.2091 4.40416 59.3935L4.40528 60.9148ZM4.32638 73.481C4.33659 73.5648 4.31561 73.6494 4.26749 73.7185C4.19196 73.768 4.10144 73.7889 4.01197 73.7777H3.28314C3.21396 73.7839 3.14471 73.7666 3.08648 73.7286C3.0638 73.7035 3.04681 73.6737 3.03664 73.6414C3.02648 73.609 3.02338 73.5749 3.02759 73.5412V63.5436C3.01979 63.4772 3.03726 63.4103 3.07648 63.3562C3.12391 63.3186 3.18409 63.301 3.24425 63.3071H4.10972C4.16988 63.301 4.23007 63.3186 4.27749 63.3562C4.31651 63.4104 4.33396 63.4772 4.32638 63.5436V73.481Z" fill="black"/>
<path d="M11.2014 73.7086C11.1843 73.677 11.1745 73.6419 11.1728 73.606C11.171 73.5701 11.1774 73.5342 11.1914 73.5011L16.3288 59.3735C16.3569 59.2968 16.4044 59.2288 16.4666 59.1761C16.532 59.132 16.6102 59.1112 16.6887 59.117H17.8698C17.9577 59.1044 18.0472 59.1231 18.1228 59.17C18.1983 59.2169 18.255 59.2889 18.2831 59.3735L23.3616 73.5011C23.3756 73.5319 23.3824 73.5655 23.3816 73.5993C23.3849 73.6234 23.3826 73.6479 23.3749 73.6709C23.3672 73.6939 23.3543 73.7149 23.3371 73.7321C23.32 73.7492 23.2992 73.7622 23.2763 73.7699C23.2533 73.7777 23.2289 73.7799 23.2049 73.7766H22.1816C22.1196 73.7858 22.0563 73.7731 22.0024 73.7408C21.9486 73.7085 21.9075 73.6585 21.8861 73.5993L20.4296 69.5295C20.4153 69.4821 20.3857 69.4408 20.3455 69.4121C20.3052 69.3835 20.2566 69.3691 20.2073 69.3712H14.2234C14.1741 69.3691 14.1255 69.3835 14.0853 69.4121C14.045 69.4408 14.0154 69.4821 14.0012 69.5295L12.5058 73.6194C12.4791 73.7309 12.3946 73.7777 12.2491 73.7777H11.3436C11.3152 73.7798 11.2867 73.7745 11.2608 73.7624C11.235 73.7503 11.2126 73.7318 11.1959 73.7086H11.2014ZM19.7785 68.1666C19.9096 68.1666 19.9552 68.0941 19.9163 67.9436L17.3765 60.9294C17.3372 60.8112 17.2913 60.752 17.2387 60.752C17.1865 60.752 17.1276 60.8189 17.0809 60.9494L14.5023 67.9636C14.4809 67.9998 14.4673 68.0401 14.4623 68.0819C14.4623 68.1343 14.5145 68.161 14.62 68.161L19.7785 68.1666Z" fill="black"/>
<path d="M26.3657 73.5803V59.3735C26.3595 59.3041 26.3768 59.2345 26.4146 59.1761C26.4398 59.1532 26.4697 59.1361 26.5021 59.1259C26.5345 59.1157 26.5687 59.1127 26.6024 59.117H30.9354C32.3194 59.032 33.6962 59.3733 34.8817 60.0951C35.3322 60.4073 35.696 60.8297 35.9388 61.3222C36.1816 61.8147 36.2954 62.3612 36.2694 62.9102C36.2859 63.6747 36.0374 64.4212 35.5665 65.0223C35.0956 65.6234 34.4314 66.0418 33.6874 66.2059C33.6655 66.2081 33.6452 66.2185 33.6306 66.2351C33.616 66.2516 33.6081 66.273 33.6085 66.2951C33.6078 66.3173 33.6156 66.3389 33.6303 66.3554C33.645 66.372 33.6654 66.3824 33.6874 66.3843C34.5231 66.5338 35.2871 66.9537 35.8628 67.5799C36.387 68.2208 36.6568 69.0335 36.6205 69.8619C36.6546 70.4341 36.54 71.0054 36.2879 71.5198C36.0359 72.0342 35.6551 72.474 35.1828 72.7962C33.9244 73.5251 32.4798 73.8653 31.0298 73.7744H26.5613C26.5349 73.778 26.5081 73.7755 26.4829 73.7671C26.4577 73.7586 26.4347 73.7445 26.4158 73.7257C26.3969 73.707 26.3826 73.6841 26.3739 73.6589C26.3652 73.6337 26.3624 73.6068 26.3657 73.5803ZM31.1676 65.7954C32.0598 65.8241 32.943 65.609 33.7229 65.1731C34.0732 64.953 34.3561 64.6399 34.5402 64.2685C34.7243 63.8971 34.8025 63.4818 34.7662 63.0685C34.7909 62.6589 34.7097 62.2498 34.5304 61.8811C34.3511 61.5123 34.0798 61.1963 33.7429 60.9639C32.8826 60.4494 31.8885 60.2051 30.8887 60.2624H28.0745C28.013 60.2585 27.9517 60.2724 27.8978 60.3026C27.8759 60.3219 27.8591 60.3464 27.8488 60.3738C27.8385 60.4012 27.8351 60.4308 27.8389 60.4598V65.5579C27.8389 65.7152 27.8978 65.7954 28.0156 65.7954H31.1676ZM30.9309 72.6323C32.0173 72.7074 33.1033 72.4817 34.0707 71.9798C34.4098 71.7527 34.6825 71.4388 34.8606 71.0707C35.0387 70.7025 35.1158 70.2933 35.0839 69.8853C35.1135 69.4541 35.031 69.0226 34.8447 68.633C34.6583 68.2433 34.3744 67.9089 34.0207 67.6625C33.1624 67.1414 32.1683 66.89 31.1665 66.9409H28.0967C27.9256 66.9409 27.8401 67.0152 27.8401 67.1639V72.4059C27.8401 72.5631 27.8989 72.6435 28.0167 72.6435L30.9309 72.6323Z" fill="black"/>
<path d="M40.0546 59.166C40.102 59.1282 40.1622 59.1107 40.2224 59.117H48.7839C48.8079 59.1136 48.8324 59.1159 48.8553 59.1236C48.8782 59.1314 48.8991 59.1443 48.9162 59.1615C48.9333 59.1787 48.9462 59.1997 48.9539 59.2227C48.9616 59.2457 48.9639 59.2702 48.9606 59.2943L48.9406 60.104C48.9489 60.1314 48.9495 60.1606 48.9426 60.1884C48.9356 60.2162 48.9213 60.2415 48.9011 60.2618C48.881 60.282 48.8557 60.2964 48.828 60.3034C48.8003 60.3104 48.7713 60.3097 48.744 60.3014H41.7167C41.6515 60.295 41.5859 60.309 41.529 60.3416C41.5092 60.3662 41.4947 60.3947 41.4863 60.4252C41.4779 60.4557 41.4758 60.4876 41.4801 60.5189V65.5969C41.4764 65.6253 41.4788 65.6541 41.4873 65.6815C41.4957 65.7088 41.5099 65.734 41.529 65.7553C41.5791 65.7865 41.6379 65.8006 41.6967 65.7954H47.0296C47.054 65.7899 47.0793 65.7907 47.1032 65.7977C47.1272 65.8046 47.149 65.8175 47.1666 65.8352C47.1843 65.8529 47.1972 65.8748 47.2041 65.8989C47.211 65.9229 47.2118 65.9483 47.2063 65.9727V66.8026C47.2095 66.8256 47.2076 66.849 47.2006 66.8712C47.1937 66.8933 47.182 66.9137 47.1663 66.9308C47.1243 66.9541 47.0763 66.9642 47.0285 66.9598H41.6745C41.6222 66.9561 41.5701 66.9703 41.5268 67C41.5078 67.0211 41.4936 67.0461 41.4852 67.0732C41.4767 67.1004 41.4742 67.129 41.4779 67.1572V72.3992C41.4696 72.4266 41.4689 72.4558 41.4759 72.4836C41.4828 72.5113 41.4971 72.5367 41.5173 72.557C41.5375 72.5772 41.5628 72.5916 41.5905 72.5986C41.6181 72.6055 41.6472 72.6049 41.6745 72.5966H49.0161C49.0737 72.5922 49.1314 72.6026 49.1839 72.6267C49.2161 72.6468 49.2328 72.6959 49.2328 72.775V73.6048C49.2328 73.723 49.1673 73.7822 49.0362 73.7822H40.238C40.2052 73.7913 40.1705 73.7915 40.1376 73.7828C40.1047 73.7741 40.0747 73.7569 40.0506 73.7327C40.0265 73.7085 40.0093 73.6784 40.0006 73.6453C39.992 73.6123 39.9922 73.5775 40.0013 73.5446V59.3578C39.9953 59.2913 40.0143 59.2248 40.0546 59.1716V59.166Z" fill="black"/>
<path d="M52.297 59.166C52.3444 59.1283 52.4046 59.1107 52.4648 59.117H53.5269C53.5552 59.1132 53.5839 59.1156 53.6112 59.1241C53.6384 59.1325 53.6635 59.1469 53.6847 59.166C53.717 59.2228 53.731 59.2883 53.7247 59.3534V72.3936C53.7164 72.421 53.7157 72.4502 53.7227 72.478C53.7296 72.5058 53.744 72.5311 53.7641 72.5514C53.7843 72.5717 53.8096 72.5861 53.8373 72.593C53.865 72.6 53.894 72.5993 53.9213 72.591H60.8697C60.924 72.5855 60.9788 72.596 61.0274 72.6211C61.0541 72.6412 61.0674 72.6903 61.0674 72.7695V73.5993C61.0674 73.7175 61.0018 73.7766 60.8707 73.7766H52.4859C52.4537 73.7813 52.4209 73.7783 52.3901 73.768C52.3592 73.7578 52.3312 73.7404 52.3082 73.7173C52.2853 73.6943 52.268 73.6662 52.2577 73.6352C52.2475 73.6042 52.2446 73.5713 52.2492 73.539V59.3523C52.2416 59.2864 52.2586 59.22 52.297 59.166Z" fill="black"/>
<path d="M64.0316 59.166C64.079 59.1284 64.1392 59.1108 64.1994 59.117H65.2626C65.2909 59.1132 65.3196 59.1156 65.3469 59.1241C65.3741 59.1325 65.3992 59.1469 65.4204 59.166C65.4524 59.2229 65.4659 59.2884 65.4593 59.3534V72.3936C65.451 72.421 65.4503 72.4502 65.4573 72.478C65.4642 72.5058 65.4786 72.5311 65.4987 72.5514C65.5189 72.5717 65.5442 72.5861 65.5719 72.593C65.5996 72.6 65.6286 72.5993 65.6559 72.591H72.6031C72.6575 72.5856 72.7123 72.596 72.7609 72.6211C72.7865 72.6412 72.8009 72.6903 72.8009 72.7695V73.5993C72.8009 73.7175 72.7354 73.7766 72.6043 73.7766H64.2194C64.1872 73.7813 64.1544 73.7783 64.1236 73.768C64.0927 73.7578 64.0647 73.7404 64.0417 73.7173C64.0188 73.6943 64.0015 73.6662 63.9912 73.6352C63.981 73.6042 63.9781 73.5713 63.9827 73.539V59.3523C63.9754 59.2863 63.9929 59.2199 64.0316 59.166Z" fill="black"/>
<path d="M74.6374 73.7085C74.6203 73.6769 74.6105 73.6419 74.6088 73.606C74.6071 73.57 74.6134 73.5342 74.6274 73.5011L79.7648 59.3735C79.7932 59.2969 79.8407 59.229 79.9026 59.176C79.968 59.132 80.0462 59.1112 80.1248 59.117H81.3036C81.3915 59.1041 81.4812 59.1227 81.5568 59.1696C81.6323 59.2166 81.689 59.2887 81.7169 59.3735L86.7954 73.5011C86.8094 73.5318 86.8162 73.5654 86.8154 73.5992C86.8187 73.6233 86.8164 73.6478 86.8087 73.6708C86.801 73.6939 86.7881 73.7148 86.7709 73.732C86.7538 73.7492 86.733 73.7621 86.7101 73.7699C86.6871 73.7776 86.6627 73.7799 86.6387 73.7766H85.6154C85.5534 73.7855 85.4902 73.7728 85.4364 73.7405C85.3826 73.7082 85.3414 73.6583 85.3199 73.5992L83.8589 69.5295C83.8447 69.4821 83.8151 69.4408 83.7748 69.4121C83.7346 69.3834 83.686 69.369 83.6367 69.3711H77.6528C77.6035 69.369 77.5549 69.3834 77.5146 69.4121C77.4744 69.4408 77.4448 69.4821 77.4306 69.5295L75.9351 73.6193C75.9085 73.7308 75.824 73.7777 75.6796 73.7777H74.7741C74.7466 73.7787 74.7192 73.7729 74.6944 73.7608C74.6697 73.7488 74.6482 73.7308 74.6319 73.7085H74.6374ZM83.209 68.1666C83.3401 68.1666 83.3856 68.0941 83.3467 67.9435L80.8081 60.9293C80.7681 60.8111 80.7225 60.752 80.6703 60.752C80.6181 60.752 80.5659 60.8189 80.5136 60.9494L77.9349 67.9636C77.9139 67.9998 77.9006 68.0401 77.8961 68.0818C77.8961 68.1342 77.9483 68.161 78.0527 68.161L83.209 68.1666Z" fill="black"/>
<line y1="0.5" x2="112" y2="0.5" stroke="black"/>
<line y1="26.5" x2="112" y2="26.5" stroke="black"/>
<line y1="79.5" x2="112" y2="79.5" stroke="black"/>
<line y1="53.5" x2="112" y2="53.5" stroke="black"/>
</svg>
